<svg xmlns="http://www.w3.org/2000/svg" width="53.003" height="53.003" viewBox="0 0.345 53.003 53.003"><g data-name="グループ 23066"><path d="m41.099 4.797-14.132 10.42 25.107 18.594c.603-2.22.93-4.554.93-6.965 0-9.22-4.711-17.34-11.856-22.088l-.051.037.002.002Z" fill="#1788dd" fill-rule="evenodd" data-name="パス 33571"/><path d="M41.148 4.758c-.047-.031-.096-.057-.143-.088l.092.125.05-.037Z" fill="#e73e8f" fill-rule="evenodd" data-name="パス 33572"/><path d="M40.224 4.19A26.347 26.347 0 0 0 26.502.346a26.382 26.382 0 0 0-16.83 6.038l5.646 16.171L40.224 4.191Z" fill="#e73e8f" fill-rule="evenodd" data-name="パス 33573"/><path d="M28.671 53.258c10.891-.882 19.92-8.35 23.102-18.416l-13.52-10.018-9.582 28.434Z" fill="#e3e100" fill-rule="evenodd" data-name="パス 33574"/><path d="M2.263 37.57c4.117 9.294 13.42 15.778 24.239 15.778.363 0 .724-.008 1.083-.023l5.316-15.775-30.638.02Z" fill="#00aa9f" fill-rule="evenodd" data-name="パス 33575"/><path d="M8.853 7.09C3.423 11.943 0 18.992 0 26.846c0 3.432.659 6.708 1.847 9.719L19 36.51 8.853 7.09Z" fill="#0000d4" fill-rule="evenodd" data-name="パス 33576"/><path d="m19.475 37.517.012.033h.101l.096-.034h-.209Z" fill="#fff" fill-rule="evenodd" data-name="パス 33577"/><path d="m19.498 37.581.09-.031h-.101l.01.031Z" fill="#fff" fill-rule="evenodd" data-name="パス 33578"/><path d="m38.238 24.813-9.618 28.45.051-.005 9.581-28.435-.014-.01Z" fill="#fff" fill-rule="evenodd" data-name="パス 33579"/><path d="m2.253 37.55.01.02 6.75-.02h-6.76Z" fill="#fff" fill-rule="evenodd" data-name="パス 33580"/><path d="m38.253 24.824.068-.204-.015-.005-.067.198.014.01Z" fill="#fff" fill-rule="evenodd" data-name="パス 33581"/></g></svg>