<svg xmlns="http://www.w3.org/2000/svg" width="101.278" height="54.113"><g data-name="グループ 23064"><path d="M13.479 15.53c0 1.052-.217 1.968-.648 2.745-.431.78-1 1.42-1.704 1.926-.706.505-1.52.884-2.446 1.137a10.9 10.9 0 0 1-2.873.378c-.968 0-1.931-.068-2.888-.204a13.493 13.493 0 0 1-2.794-.71l.156-2.936a8.99 8.99 0 0 0 2.573.978c.894.19 1.815.284 2.762.284.57 0 1.116-.063 1.642-.19a3.976 3.976 0 0 0 1.39-.615c.399-.284.72-.647.962-1.089.243-.442.364-.978.364-1.61 0-.442-.111-.836-.332-1.184a3.759 3.759 0 0 0-.883-.947 9.373 9.373 0 0 0-1.216-.789 26.9 26.9 0 0 0-1.326-.679l-2.145-1.072c-.57-.274-1.101-.573-1.595-.9A6.608 6.608 0 0 1 1.184 8.95a4.678 4.678 0 0 1-.868-1.405C.105 7.018 0 6.418 0 5.745c0-1.03.231-1.91.695-2.636a5.709 5.709 0 0 1 1.799-1.784A8.019 8.019 0 0 1 4.956.315 11.96 11.96 0 0 1 7.67 0c.8 0 1.595.052 2.383.158.79.105 1.563.273 2.32.505l-.19 2.778a7.79 7.79 0 0 0-2.153-.664 14.104 14.104 0 0 0-2.249-.19c-.507 0-1.02.048-1.536.143a4.662 4.662 0 0 0-1.41.489 2.992 2.992 0 0 0-1.03.915c-.264.38-.396.863-.396 1.452 0 .4.095.753.286 1.058.189.306.431.585.728.836.295.254.638.48 1.028.68.39.2.776.394 1.156.584l2.249 1.072c.633.295 1.229.611 1.79.947.558.337 1.048.732 1.471 1.184.422.453.754.968.997 1.546.242.58.365 1.259.365 2.037Z" fill="#142a4d" fill-rule="evenodd" data-name="パス 33558"/><path d="m35.433 21.37-2.02-5.525H23.66l-2.083 5.524H18.23L26.437.315h4.325l8.27 21.054h-3.599Zm-6.88-18.593-4.041 10.575h8.048L28.552 2.777Z" fill="#142a4d" fill-rule="evenodd" data-name="パス 33559"/><path d="M46.606 21.37V.314h3.41v18.213h8.742v2.841H46.606Z" fill="#142a4d" fill-rule="evenodd" data-name="パス 33560"/><path d="M66.902 21.37V.314h12.12v2.557h-8.711v6.502h8.301v2.494h-8.301v6.944h9.028v2.557H66.902Z" fill="#142a4d" fill-rule="evenodd" data-name="パス 33561"/><path d="M101.278 15.53c0 1.052-.216 1.968-.647 2.745-.432.78-1 1.42-1.704 1.926-.705.505-1.52.884-2.447 1.137-.926.252-1.883.378-2.872.378-.968 0-1.931-.068-2.888-.204a13.515 13.515 0 0 1-2.794-.71l.156-2.936a8.99 8.99 0 0 0 2.572.978c.895.19 1.816.284 2.763.284a7.01 7.01 0 0 0 1.642-.19 3.97 3.97 0 0 0 1.389-.615c.4-.284.721-.647.963-1.089.242-.442.363-.978.363-1.61 0-.442-.11-.836-.332-1.184a3.746 3.746 0 0 0-.883-.947 9.362 9.362 0 0 0-1.215-.789 26.899 26.899 0 0 0-1.326-.679l-2.146-1.072c-.569-.274-1.1-.573-1.594-.9a6.627 6.627 0 0 1-1.295-1.104 4.677 4.677 0 0 1-.867-1.405c-.211-.526-.317-1.126-.317-1.799 0-1.03.232-1.91.696-2.636a5.708 5.708 0 0 1 1.798-1.784 8.02 8.02 0 0 1 2.462-1.01C93.66.105 94.565 0 95.47 0c.8 0 1.594.052 2.383.158.79.105 1.563.273 2.32.505l-.19 2.778a7.796 7.796 0 0 0-2.154-.664 14.103 14.103 0 0 0-2.248-.19 8.52 8.52 0 0 0-1.537.143 4.675 4.675 0 0 0-1.41.489 2.984 2.984 0 0 0-1.03.915c-.264.38-.395.863-.395 1.452 0 .4.094.753.285 1.058.19.306.433.585.728.836.296.254.638.48 1.03.68.39.2.775.394 1.155.584l2.248 1.072a19.49 19.49 0 0 1 1.79.947c.558.337 1.05.732 1.472 1.184.422.453.753.968.996 1.546.243.58.365 1.259.365 2.037Z" fill="#142a4d" fill-rule="evenodd" data-name="パス 33562"/><path d="M13.478 47.927c0 1.052-.216 1.968-.647 2.746-.432.78-1 1.42-1.704 1.926-.706.505-1.52.884-2.447 1.135-.926.254-1.883.38-2.872.38-.968 0-1.931-.07-2.888-.206a13.45 13.45 0 0 1-2.794-.71l.156-2.935c.82.463 1.678.789 2.572.978.895.19 1.816.285 2.763.285.57 0 1.116-.064 1.642-.19.526-.126.99-.332 1.389-.616.4-.284.722-.646.963-1.088.242-.442.364-.979.364-1.611 0-.44-.111-.836-.333-1.183a3.733 3.733 0 0 0-.883-.947 9.32 9.32 0 0 0-1.215-.789 26.896 26.896 0 0 0-1.326-.679l-2.146-1.072c-.569-.274-1.1-.573-1.594-.9a6.562 6.562 0 0 1-1.294-1.105 4.683 4.683 0 0 1-.868-1.404C.105 39.416 0 38.816 0 38.142c0-1.03.231-1.91.695-2.635a5.686 5.686 0 0 1 1.799-1.783 7.973 7.973 0 0 1 2.461-1.01c.906-.21 1.81-.317 2.715-.317.799 0 1.594.054 2.383.159.79.105 1.563.273 2.32.505l-.19 2.777a7.817 7.817 0 0 0-2.154-.663 14.172 14.172 0 0 0-2.248-.189c-.507 0-1.02.047-1.537.141a4.684 4.684 0 0 0-1.41.49 2.998 2.998 0 0 0-1.03.915c-.263.38-.395.863-.395 1.452 0 .4.094.753.285 1.058.19.305.432.584.728.836.296.253.639.479 1.03.68.39.199.775.394 1.155.582l2.248 1.074c.633.294 1.23.61 1.79.947a6.85 6.85 0 0 1 1.472 1.183c.421.453.753.97.996 1.547.243.58.365 1.258.365 2.036Z" fill="#142a4d" fill-rule="evenodd" data-name="パス 33563"/><path d="M34.711 53.198c-.737.337-1.573.573-2.51.71-.936.137-1.814.205-2.635.205-1.684 0-3.21-.247-4.577-.741-1.368-.495-2.536-1.21-3.503-2.146-.969-.937-1.72-2.078-2.258-3.425-.536-1.346-.804-2.862-.804-4.545 0-1.6.278-3.067.836-4.404.557-1.336 1.331-2.483 2.32-3.44.99-.958 2.163-1.699 3.52-2.225 1.357-.526 2.845-.79 4.466-.79.8 0 1.662.063 2.589.19.925.127 1.756.327 2.493.6l-.19 2.778a9.391 9.391 0 0 0-2.194-.664c-.81-.147-1.583-.22-2.32-.22-1.241 0-2.35.205-3.329.615-.978.41-1.805.979-2.478 1.705-.674.726-1.194 1.589-1.563 2.588-.368 1-.552 2.088-.552 3.267 0 1.22.174 2.33.52 3.33.349 1 .858 1.857 1.532 2.572a6.982 6.982 0 0 0 2.462 1.672c.968.4 2.083.6 3.345.6.8 0 1.595-.068 2.383-.204a8.831 8.831 0 0 0 2.257-.71l.19 2.682Z" fill="#142a4d" fill-rule="evenodd" data-name="パス 33564"/><path d="M60.622 43.256c0 1.536-.211 2.962-.63 4.277-.423 1.315-1.043 2.461-1.863 3.44-.822.978-1.848 1.747-3.078 2.304-1.231.557-2.656.836-4.276.836-1.642 0-3.078-.273-4.31-.82-1.23-.547-2.256-1.305-3.077-2.273-.82-.967-1.436-2.114-1.847-3.44-.41-1.326-.615-2.767-.615-4.324 0-1.516.21-2.93.631-4.246.42-1.314 1.047-2.462 1.878-3.44a8.904 8.904 0 0 1 3.078-2.32c1.22-.568 2.64-.853 4.262-.853 1.64 0 3.076.274 4.307.822 1.23.546 2.257 1.305 3.078 2.272.82.968 1.436 2.115 1.846 3.44.411 1.326.616 2.768.616 4.325Zm-3.599 0c0-.99-.11-1.973-.33-2.952a8.453 8.453 0 0 0-1.074-2.65 6.013 6.013 0 0 0-1.926-1.926c-.789-.494-1.762-.742-2.918-.742-1.137 0-2.1.252-2.889.757a6.158 6.158 0 0 0-1.925 1.942 8.745 8.745 0 0 0-1.09 2.65 12.639 12.639 0 0 0-.346 2.92c0 .969.114 1.942.346 2.92.232.978.6 1.863 1.106 2.652a6.334 6.334 0 0 0 1.94 1.941c.79.505 1.741.758 2.858.758 1.156 0 2.13-.248 2.918-.742a6.02 6.02 0 0 0 1.926-1.925 8.474 8.474 0 0 0 1.073-2.653c.221-.978.331-1.961.331-2.95Z" fill="#142a4d" fill-rule="evenodd" data-name="パス 33565"/><path d="m77.999 53.766-2.588-6.533c-.211-.526-.415-.968-.614-1.326a2.869 2.869 0 0 0-.69-.852c-.262-.21-.59-.358-.988-.442-.398-.084-.889-.127-1.475-.127H69.95v9.28h-3.41V32.714h7.008c.884 0 1.736.1 2.557.3.82.2 1.546.516 2.178.947a4.772 4.772 0 0 1 1.515 1.708c.38.706.568 1.565.568 2.577 0 .695-.126 1.327-.379 1.896-.252.57-.6 1.064-1.041 1.486a5.7 5.7 0 0 1-1.547 1.043c-.59.275-1.21.464-1.862.569.863.168 1.515.493 1.956.976.443.484.822 1.115 1.137 1.891l3.125 7.659h-3.756Zm-1.136-15.261c0-.676-.126-1.231-.378-1.664a2.737 2.737 0 0 0-1.005-1.016 4.163 4.163 0 0 0-1.477-.491 12.103 12.103 0 0 0-1.791-.127H69.95v6.786h2.137c.565 0 1.136-.053 1.712-.158a4.465 4.465 0 0 0 1.54-.572c.45-.274.816-.634 1.1-1.078.282-.443.424-1.004.424-1.68Z" fill="#142a4d" fill-rule="evenodd" data-name="パス 33566"/><path d="M88.283 53.766V32.714h12.12v2.556h-8.711v6.502h8.301v2.494h-8.301v6.944h9.027v2.556H88.283Z" fill="#142a4d" fill-rule="evenodd" data-name="パス 33567"/></g></svg>